Coordinates
version=1
nRows=16
nColumns=33
inDegrees=yes

Units are S.I. units (second, meters, Newtons, ...)
Angles are in degrees.

endheader
time	ground_thorax_rot_x	ground_thorax_rot_y	ground_thorax_rot_z	ground_thorax_tx	ground_thorax_ty	ground_thorax_tz	clav_prot_r	clav_elev_r	scapula_abduction_r	scapula_elevation_r	scapula_upward_rot_r	scapula_winging_r	shoulder_elv_r	plane_of_elev_r	axial_rot_r	elbow_flexion_r	pro_sup_r	wrist_flex_r	wrist_dev_r	clav_prot_l	clav_elev_l	scapula_abduction_l	scapula_elevation_l	scapula_upward_rot_l	scapula_winging_l	shoulder_elv_l	plane_of_elev_l	axial_rot_l	elbow_flexion_l	pro_sup_l	wrist_flex_l	wrist_dev_l	
7.0200	-16.675729	-36.852191	59.897373	-34.027168	829.008961	-40.145332	22.510434	-45.000000	44.487882	-45.000000	-25.678746	1683.696583	2060.821056	144.102218	-180.000000	1792.824122	59.926756	27.261961	18.384898	-3.107594	33.191650	-29.579078	-45.000000	-45.000000	4048.945432	-4408.430938	133.888155	-110.706363	709.106657	402.080010	15.088412	-18.184950	
7.0300	-15.957184	-37.153256	60.960126	-31.237590	827.195559	-39.881136	22.563632	-45.000000	44.448491	-45.000000	-26.039509	1683.484428	2060.567371	143.993166	-180.000000	1792.657415	60.026437	27.004483	18.335183	-3.242607	33.165507	-29.339034	-45.000000	-45.000000	4048.900520	-4408.557068	133.974891	-111.095537	709.033696	402.153497	15.018311	-17.981577	
7.0400	-15.243237	-37.444965	62.012758	-28.489871	825.389849	-39.612834	22.624603	-45.000000	44.400309	-45.000000	-26.409078	1683.268175	2060.318308	143.880546	-180.000000	1792.484432	60.129396	26.750159	18.278764	-3.380893	33.142234	-29.094408	-45.000000	-45.000000	4048.863338	-4408.684689	134.060007	-111.511742	708.967608	402.233987	14.945468	-17.784336	
7.0500	-14.529486	-37.728174	63.061107	-25.790696	823.592884	-39.339330	22.687178	-45.000000	44.346251	-45.000000	-26.790773	1683.047152	2060.074638	143.766184	-180.000000	1792.308809	60.234069	26.495291	18.212501	-3.521843	33.118878	-28.845230	-45.000000	-45.000000	4048.830223	-4408.811685	134.147956	-111.951757	708.907036	402.321499	14.870503	-17.590781	
7.0600	-13.822944	-37.999703	64.094525	-23.146332	821.805435	-39.059791	22.755856	-45.000000	44.284663	-45.000000	-27.175747	1682.822847	2059.836567	143.649227	-180.000000	1792.130797	60.339050	26.238249	18.137841	-3.665669	33.098367	-28.592420	-45.000000	-45.000000	4048.801191	-4408.937849	134.235529	-112.414289	708.853220	402.414404	14.793781	-17.402233	
7.0700	-13.118726	-38.261943	65.119072	-20.562715	820.029293	-38.773873	22.827157	-45.000000	44.216689	-45.000000	-27.578030	1682.598370	2059.603739	143.531803	-180.000000	1791.952734	60.441074	25.976578	18.055953	-3.812532	33.077901	-28.334189	-45.000000	-45.000000	4048.773827	-4409.060659	134.326757	-112.894570	708.803366	402.512045	14.715752	-17.217171	
7.0800	-12.420151	-38.512243	66.130208	-18.044956	818.267519	-38.481995	22.907253	-45.000000	44.139402	-45.000000	-28.000199	1682.376969	2059.378713	143.416823	-180.000000	1791.780872	60.535861	25.711484	17.969874	-3.961172	33.059652	-28.070867	-45.000000	-45.000000	4048.747596	-4409.180332	134.418784	-113.390924	708.758715	402.613190	14.636544	-17.037578	
7.0900	-11.726915	-38.750075	67.128810	-15.597333	816.524551	-38.185403	22.993388	-45.000000	44.053328	-45.000000	-28.452499	1682.162864	2059.161292	143.307772	-180.000000	1791.618063	60.620551	25.443482	17.881522	-4.111495	33.041581	-27.805256	-45.000000	-45.000000	4048.721839	-4409.295410	134.513490	-113.897843	708.719446	402.717446	14.556659	-16.864628	
7.1000	-11.042943	-38.973211	68.110655	-13.223190	814.805704	-37.886060	23.089046	-45.000000	43.956110	-45.000000	-28.936896	1681.958674	2058.952299	143.204832	-180.000000	1791.467508	60.693577	25.177409	17.795484	-4.263567	33.026963	-27.536728	-45.000000	-45.000000	4048.698449	-4409.403938	134.604839	-114.417141	708.684697	402.825223	14.476457	-16.699985	
7.1100	-10.367776	-39.182600	69.074298	-10.925350	813.116581	-37.586455	23.193696	-45.000000	43.854211	-45.000000	-29.455863	1681.767623	2058.751246	143.110513	-180.000000	1791.329144	60.755202	24.919861	17.715886	-4.414779	33.013826	-27.267801	-45.000000	-45.000000	4048.682581	-4409.509861	134.692296	-114.939267	708.655691	402.936978	14.397841	-16.546890	
7.1200	-9.706129	-39.376240	70.014853	-8.706118	811.461954	-37.289309	23.305753	-45.000000	43.744474	-45.000000	-30.009649	1681.593634	2058.557733	143.025662	-180.000000	1791.207046	60.807036	24.672437	17.641946	-4.566291	33.002579	-26.999879	-45.000000	-45.000000	4048.671428	-4409.612731	134.776703	-115.461733	708.631983	403.053614	14.320162	-16.405220	
7.1300	-9.053942	-39.554639	70.936734	-6.567701	809.844981	-36.997272	23.420381	-45.000000	43.632741	-45.000000	-30.595826	1681.435126	2058.373582	142.949273	-180.000000	1791.100574	60.852258	24.435660	17.572172	-4.717022	32.992116	-26.733027	-45.000000	-45.000000	4048.665780	-4409.714407	134.859087	-115.977395	708.610625	403.176399	14.243381	-16.273140	
7.1400	-8.417311	-39.715968	71.836120	-4.512340	808.266523	-36.712574	23.535773	-45.000000	43.512626	-45.000000	-31.210594	1681.292895	2058.198159	142.879014	-180.000000	1791.009736	60.895010	24.204055	17.502275	-4.868982	32.981725	-26.466398	-45.000000	-45.000000	4048.655329	-4409.809746	134.943400	-116.487009	708.588832	403.305620	14.165473	-16.146392	
7.1500	-7.799021	-39.862256	72.705312	-2.542508	806.725077	-36.436730	23.656314	-45.000000	43.388365	-45.000000	-31.846533	1681.167364	2058.030706	142.811286	-180.000000	1790.928664	60.937813	23.988051	17.439605	-5.017567	32.975914	-26.197397	-45.000000	-45.000000	4048.653655	-4409.902410	135.015937	-116.981247	708.571173	403.439165	14.087479	-16.028419	
7.1600	-7.201353	-39.993791	73.546154	-0.660446	805.216878	-36.170319	23.774324	-45.000000	43.256866	-45.000000	-32.500096	1681.056960	2057.869825	142.748909	-180.000000	1790.861471	60.981376	23.778978	17.375931	-5.164939	32.967470	-25.930300	-45.000000	-45.000000	4048.647679	-4409.989983	135.091322	-117.459691	708.556068	403.575774	14.008972	-15.915478	
7.1700	-6.624962	-40.112899	74.357372	1.132297	803.736618	-35.913010	23.893601	-45.000000	43.122078	-45.000000	-33.160444	1680.956969	2057.714699	142.688381	-180.000000	1790.801628	61.026453	23.580770	17.316123	-5.310124	32.965347	-25.664033	-45.000000	-45.000000	4048.652248	-4410.074805	135.155722	-117.922882	708.545500	403.712655	13.929972	-15.808717	
